PathFileType	4	(X/Y/Z)	Patient4_TMGait_0pt2_01_right_08.trc.trc
DataRate	CameraRate	NumFrames	NumMarkers	Units	OrigDataRate	OrigDataStartFrame	OrigNumFrames
42.682926829268	42.682926829268	6	33	mm	42.682926829268	36	       141
Frame#	Time	Sacral			L.Shoulder			Chest			R.Shoulder			Neck			R.ASIS			L.ASIS			R.Thigh.Superior			R.Thigh.Lateral			R.Thigh.Inferior			R.Patella			L.Thigh.Superior			L.Thigh.Lateral			L.Thigh.Inferior			L.Patella			L.Shank.Superior			L.Shank.Lateral			L.Shank.Inferior			R.Shank.Superior			R.Shank.Lateral			R.Shank.Inferior			R.Heel			R.Midfoot.Superior			R.Midfoot.Lateral			R.Toe			L.Heel			L.Midfoot.Lateral			L.Midfoot.Superior			L.Toe			L.Elbow			L.Wrist			R.Elbow			R.Wrist			
		X1	Y1	Z1	X2	Y2	Z2	X3	Y3	Z3	X4	Y4	Z4	X5	Y5	Z5	X6	Y6	Z6	X7	Y7	Z7	X8	Y8	Z8	X9	Y9	Z9	X10	Y10	Z10	X11	Y11	Z11	X12	Y12	Z12	X13	Y13	Z13	X14	Y14	Z14	X15	Y15	Z15	X16	Y16	Z16	X17	Y17	Z17	X18	Y18	Z18	X19	Y19	Z19	X20	Y20	Z20	X21	Y21	Z21	X22	Y22	Z22	X23	Y23	Z23	X24	Y24	Z24	X25	Y25	Z25	X26	Y26	Z26	X27	Y27	Z27	X28	Y28	Z28	X29	Y29	Z29	X30	Y30	Z30	X31	Y31	Z31	X32	Y32	Z32	X33	Y33	Z33	

36	17.120000000000	814.082532746291	1003.920639175763	478.902486501552	1005.604281278822	1431.126056303730	314.495705951668	1083.382153624354	1370.109001075139	491.038375520109	974.152368328658	1445.529157924942	648.457875941777	962.863457369327	1495.987844080317	468.157712003252	1032.296821653074	946.763493080703	623.460374514896	1045.840332261605	959.530586138596	348.561714102555	1083.674342771082	747.494691200103	588.484452962437	1006.390023547452	632.817749983199	645.178418155196	1085.354204191245	585.435414796556	564.125152074457	1088.830621595704	499.487840495737	568.759310222128	1044.013680608292	727.793541222273	372.177778393511	929.921324621439	632.539401112267	300.724689894547	987.148198806969	538.662139743655	364.722741616534	970.206390687832	469.427045805775	370.396655724710	928.496045502520	406.666699081468	357.711951108060	816.460025012140	316.382770060907	301.262668605489	841.508290901885	192.580534771346	365.213400943822	1066.144860358510	409.125410321837	577.020433968450	1000.434183815355	302.226016511541	640.204455309520	1046.600412420041	209.320755210486	576.633880453996	919.325211676814	42.405345774901	548.028085441864	1090.096700410193	97.956786506956	583.151410989953	1002.972983811295	37.141748322259	622.345534019749	1210.413926272067	48.555735179617	610.226269772227	687.176093609004	53.409024909645	397.716582197744	762.417367407573	44.347777218051	319.587455929222	850.252991726421	99.194491112624	347.238498965770	973.560092991025	38.261782736114	319.676137256225	1141.781800645952	1120.756241865868	184.268383225806	1398.680259902781	1137.006905443722	203.731411767713	835.829025262446	1133.516125532099	759.402469477508	814.461079706717	872.289010685603	775.097993952306	
37	17.143428571429	815.528087933371	1004.344393378200	485.157466251751	1005.375021347537	1431.261849696920	317.972628566573	1084.650853289853	1370.776741859570	494.015909630534	976.527226427866	1446.435050935132	652.152961202241	963.899898574020	1496.467047671702	471.717162989547	1034.740822402181	947.332833045894	628.125765362212	1046.260267830873	959.763527006118	353.103018173713	1084.090358754636	747.110593328139	592.571625837826	1005.736589982456	632.736121710813	648.815102165061	1084.036308912108	584.946100568629	567.540579620906	1086.599526946825	498.987421208727	571.608861848247	1045.090669297560	728.291089784181	375.889031248242	930.830558801293	633.116077677155	304.524104891718	988.905663482841	538.748247330547	367.494903314333	972.220473382698	468.763099522894	372.410947150961	928.857363182205	406.792488216379	359.642729807882	815.164105687941	318.494345236506	303.232316426243	839.167180629101	193.633535020071	365.700677567101	1063.420487487803	408.795313801834	579.283379494235	997.157558823339	301.873050665728	641.753456153422	1042.704272894041	209.098894849125	577.581344717786	914.776735428073	42.475077187817	548.081711647127	1085.583577699075	97.839154811222	583.323107623034	998.390511949624	37.140945986252	622.394678476512	1205.884530711830	48.230250559455	610.382983664162	683.080639397922	56.165389565284	397.661169464865	758.257523926436	45.825571783837	319.585412395535	846.888773280416	99.640063613788	347.040388977538	969.328707520952	38.000445402704	319.556156799576	1137.256386138780	1117.978325886703	188.302480239454	1394.980794686763	1127.946257202755	206.526370530417	840.153566128307	1134.109459620944	765.468603061538	820.544297282906	872.915172904095	782.572116879535	
38	17.166857142857	816.912485669909	1004.652874402809	491.298265785564	1004.796315846625	1431.364789365076	321.353666936963	1085.683540701499	1371.416704014300	496.830618901329	978.693716846219	1447.203682909658	655.752697982918	964.686038105198	1496.872528754593	475.194568595913	1037.132813536541	947.758040580737	632.595766406180	1046.562723326420	960.010318714107	357.477094866086	1084.527060168520	746.656507917796	596.428333512578	1005.149250842050	632.579523977923	652.261900688779	1082.802554330945	584.414745736941	570.792866835462	1084.449981345046	498.429362762220	574.333558556223	1046.496672076088	728.829724725258	379.464099688739	932.361262547412	633.472552213033	308.239645345225	991.520836995358	538.745589213839	370.232971330967	975.153838716900	467.883753102429	374.301132373417	929.964288800555	406.762996686663	361.501376196532	814.485244465949	320.694619080051	305.173080255496	837.277590615028	194.795654816450	366.185426977116	1060.765110109750	408.406866016721	581.426295593787	993.917736319342	301.502484468068	643.209071523743	1038.842113636114	208.848251562181	578.462676666691	910.173454535096	42.537731030843	548.109997078873	1081.019917168769	97.728459674401	583.463479193014	993.751287608378	37.147711783519	622.421695997959	1201.292655206086	47.923543939068	610.533434666401	679.152696780278	59.350216273324	397.593360230718	754.189321539617	47.524512595031	319.562317153934	843.749113150515	100.124860282431	346.789187734197	965.109830150937	37.778336591705	319.455049847073	1131.395718863698	1114.715593568138	192.351632819400	1389.881485870076	1116.804271703413	209.269328667803	844.749276381856	1134.284656898309	771.418790501352	827.507265944785	873.090081629714	789.921380614922	
39	17.190285714286	818.208203975398	1004.831944079568	497.309583005779	1003.876352371214	1431.427486728792	324.674492449549	1086.480617183191	1371.991088924928	499.511273005097	980.653395058154	1447.779856237058	659.287863808531	965.223293472683	1497.181764124608	478.633615496583	1039.464174896770	948.027187874443	636.844158346495	1046.723250322586	960.252852886842	361.658881846895	1085.026816791331	746.148454600409	600.023489068066	1004.705255660237	632.346781799182	655.502968043672	1081.728444841831	583.851058387537	573.850531591295	1082.478614760797	497.807129348263	576.903732103246	1048.299426417417	729.411328369246	382.912416600981	934.694822727387	633.554061769788	311.851068063010	995.224519388324	538.648700147523	372.944535270022	979.243511507447	466.775704003695	376.066047576309	932.058506403948	406.546422296831	363.287013005300	814.648655609578	323.027886313052	307.082385133128	835.977088194264	196.121808597984	366.663427181228	1058.255878939682	407.950575877804	583.426426770729	990.787683198333	301.113770372750	644.570509328628	1035.053951231495	208.559221834483	579.266057663444	905.521373934516	42.591208449660	548.120934154964	1076.413692026302	97.621061954963	583.569262494393	989.064890790380	37.158605033783	622.433783465111	1196.649498524094	47.636410846883	610.672230748965	675.497777574542	63.198389814473	397.524853591737	750.267150164919	49.616662010690	319.530423364557	840.899112164072	100.705097692029	346.493928450243	960.861471515059	37.569026419647	319.386492189576	1124.187015323470	1111.021884947985	196.478534677610	1383.169461803873	1103.470776407135	212.042277228089	849.758866167547	1133.925443254337	777.272675351146	835.605366460668	872.694690228480	797.152898418501	
40	17.213714285714	819.375270107700	1004.867109246833	503.186850452572	1002.621220022765	1431.434160103802	327.958043268118	1087.043661215905	1372.457905619451	502.073720361041	982.423671752763	1448.118975031618	662.777839482789	965.518224948626	1497.372700529164	482.065339082115	1041.719375178302	948.136066659362	640.848024881622	1046.706880838985	960.468563740578	365.623669675562	1085.614642062344	745.601452941643	603.333600956202	1004.462036483837	632.035813175381	658.528529108805	1080.866200866806	583.263570677402	576.684089151550	1080.759936044956	497.114248798913	579.291114858956	1050.575231302342	730.059292924723	386.248147636855	938.026305505757	633.328983258236	315.336733387514	1000.261314626063	538.479836370447	375.629252790629	984.750673073189	465.457720193951	377.702241869751	935.410831157663	406.132009484585	364.996801563997	815.915415197249	325.562133173938	308.958345283394	835.421450156181	197.695776841688	367.128422071922	1055.950138658047	407.418690027643	585.263981426672	987.824885632220	300.704692271742	645.833608365371	1031.369731633399	208.224769765858	579.980373390779	900.831242553704	42.634550142520	548.122412540043	1071.775903311685	97.514705468454	583.638241390281	984.345170801852	37.170781219091	622.437652711121	1191.969630450020	47.371736117626	610.795555443332	672.256711307577	68.014853897933	397.480398212475	746.566258672645	52.335720041145	319.512664047847	838.417398165003	101.466784996152	346.171402631255	956.530264485227	37.332973014684	319.364189148534	1115.668419636678	1106.964173147248	200.751380609734	1374.610251345145	1087.877053304162	214.935243627409	855.352643099288	1132.936796298407	783.036147341179	845.111449484649	871.639319812896	804.229099157312	
41	17.237142857143	820.367003434840	1004.739608295258	508.933806977535	1001.032269365855	1431.359734940634	331.211900852577	1087.372554612899	1372.772607754353	504.518814308846	984.032966735177	1448.188197515001	666.227991226896	965.579224687451	1497.423090941159	485.505019908157	1043.876790372196	948.087121454383	644.588600602068	1046.474460363907	960.629652116078	369.348098471268	1086.298412347206	745.027229243200	606.342461598663	1004.458781032584	631.641893090060	661.332974701805	1080.247575122587	582.658305020754	579.265409934011	1079.349096675469	496.342904100172	581.468697117370	1053.399838803920	730.817338629183	389.487462840402	942.540586786693	632.798957275578	318.675518006389	1006.856531675965	538.294762941643	378.278524178837	991.925978204683	463.989006431499	379.207708679820	940.288398821013	405.538871144272	366.628353097206	818.554157435411	328.386316788905	310.802208353260	835.771818049597	199.627950801913	367.577723350539	1053.887487976203	406.803444718551	586.921175177454	985.071269757726	300.270993483025	646.989317467785	1027.808820808593	207.839043867209	580.594230557062	896.115125670702	42.667648063240	548.121309551453	1067.117923920109	97.408548903137	583.668949874697	979.606473625097	37.182186017715	622.438650240788	1187.267711856511	47.133324992156	610.900770375850	669.600766215674	74.145362567495	397.502300287983	743.181421149909	55.959995345306	319.545735788484	836.391289505796	102.524123004521	345.847978235556	952.057259374259	37.022941432774	319.399568852118	1105.928492732111	1102.614425781914	205.239733210399	1363.949012743839	1070.014399782185	218.035915988004	861.714814286844	1131.253409148734	788.697991681350	856.301188267313	869.876842885503	811.067048338375	
